<svg t="1615465268534" class="icon" viewBox="0 0 1024 1024" version="1.1" xmlns="http://www.w3.org/2000/svg" p-id="3407" width="200" height="200"><path d="M512 32c265.088 0 480 214.912 480 480 0 265.088-214.912 480-480 480-265.088 0-480-214.912-480-480C32 246.912 246.912 32 512 32z m0 64C282.24 96 96 282.24 96 512s186.24 416 416 416 416-186.24 416-416S741.76 96 512 96z m0 128a32 32 0 0 1 31.776 28.256L544 256v224h224a32 32 0 0 1 3.744 63.776L768 544h-224v224a32 32 0 0 1-63.776 3.744L480 768v-224H256a32 32 0 0 1-3.744-63.776L256 480h224V256a32 32 0 0 1 32-32z" p-id="3408"></path></svg>